<svg xmlns="http://www.w3.org/2000/svg" xmlns:xlink="http://www.w3.org/1999/xlink" width="600" height="600"><g><path d="M242.73279033495623,227.67676818467908L242.43714789618207,236.14285994259842L241.55166092010313,244.56770575248197L240.08064341025784,252.91026061240564L238.03126201608848,261.1298804336841L235.41350111774386,269.18652005477975L232.2401141831847,277.04092833731L228.52656163456845,284.65483939364503L224.29093552662653,291.9911590144652L219.5538714039933,299.0141453880233L214.33844776690694,305.6895832306544L208.67007363507355,311.984950480202L202.57636475748154,317.86957674023506L196.08700907124467,323.3147927031346L189.23362206495835,328.29406982408113L182.049592751217,332.78314956545603L174.56992099870172,336.7601615820002L166.83104701633647,340.2057302709373L158.87067382025452,343.1030691679616L150.7275835484927,345.4380627292065L142.44144851831538,347.19933510075487L134.05263794666962,348.37830554065414L125.60202127541993,348.96923022343145L117.13076905953653,348.96923022343145L108.68015238828684,348.37830554065414L100.29134181664108,347.19933510075487L92.00520678646353,345.4380627292065L83.86211651470194,343.1030691679613L75.90174331861954,340.2057302709373L68.16286933625474,336.7601615820002L60.683197583739,332.78314956545603L53.49916826999788,328.29406982408113L46.645781263712024,323.3147927031346L40.15642557747492,317.86957674023506L34.062716699882685,311.984950480202L28.394342568049524,305.6895832306544L23.178918930963164,299.0141453880233L18.441854808329936,291.9911590144652L14.206228700388237,284.65483939364503L10.492676151771775,277.04092833731L7.319289217212599,269.18652005477975L4.701528318868213,261.1298804336835L2.652146924698627,252.91026061240564L1.181129414853558,244.56770575248197L0.29564243877439367,236.14285994259842L0,227.67676818467908L0.29564243877439367,219.21067642675973L1.181129414853558,210.78583061687664L2.652146924698627,202.4432757569523L4.701528318868213,194.22365593567463L7.319289217212599,186.16701631457852L10.492676151771775,178.31260803204782L14.206228700388237,170.69869697571323L18.441854808329936,163.36237735489237L23.178918930963164,156.33939098133476L28.394342568049524,149.66395313870385L34.062716699882685,143.36858588915607L40.15642557747492,137.4839596291232L46.645781263712024,132.0387436662237L53.499168269998336,127.05946654527725L60.68319758373923,122.57038680390201L68.16286933625474,118.59337478735767L75.90174331861954,115.1478060984208L83.86211651470194,112.25046720139653L92.00520678646353,109.91547364015094L100.29134181664108,108.15420126860317L108.68015238828684,106.97523082870373L117.13076905953653,106.38430614592687L125.60202127541993,106.38430614592687L134.05263794666962,106.97523082870373L142.44144851831538,108.15420126860317L150.7275835484927,109.91547364015094L158.87067382025452,112.25046720139653L166.83104701633692,115.1478060984208L174.56992099870172,118.59337478735767L182.049592751217,122.57038680390201L189.23362206495813,127.05946654527725L196.08700907124467,132.0387436662237L202.57636475748154,137.4839596291232L208.67007363507355,143.36858588915607L214.33844776690694,149.66395313870385L219.5538714039933,156.33939098133476L224.29093552662653,163.36237735489237L228.52656163456845,170.69869697571323L232.2401141831847,178.31260803204782L235.41350111774386,186.16701631457852L238.03126201608848,194.22365593567463L240.08064341025784,202.4432757569523L241.55166092010313,210.78583061687664L242.43714789618207,219.21067642675973Z" stroke-width="0.5" stroke="#000000" fill="transparent"></path></g><g><path d="M443.025833654571,330.1904997108593L442.8600293048189,334.93851506576107L442.3634240376889,339.66339856712244L441.53843726412356,344.34213105746835L440.3890882367564,348.95191822241105L438.9209764685163,353.47030164225663L437.14125445236436,357.87526820716977L435.0585928150665,362.145357362832L432.68313807477057,366.25976566410475L430.02646320819144,370.1984481273237L427.10151126823143,373.9422158874421L423.9225323267269,377.47282968425554L420.50501404953116,380.7730887222416L416.86560624216213,383.8269144711088L413.02203973362634,386.61942899877687L408.9930399935988,389.1370274551709L404.79823590381943,391.36744435367865L400.4580641281534,393.29981332737145L395.99366954721927,394.9247200688505L391.4268022426561,396.2342481958072L386.7797115329115,397.22201781883905L382.0750375768,397.88321662363376L377.3357010729228,398.21462331607745L372.5847915923307,398.21462331607745L367.8454550884537,397.88321662363376L363.140781132342,397.22201781883905L358.4936904225974,396.2342481958072L353.926823118034,394.9247200688505L349.4624285371003,393.29981332737145L345.1222567614341,391.36744435367865L340.9274526716547,389.1370274551709L336.8984529316274,386.61942899877687L333.0548864230914,383.82691447110835L329.4154786157226,380.7730887222416L325.9979603385266,377.47282968425554L322.81898139702184,373.9422158874421L319.89402945706206,370.1984481273237L317.23735459048316,366.25976566410475L314.8618998501872,362.145357362832L312.7792382128889,357.8752682071693L310.9995161967372,353.47030164225663L309.5314044284971,348.95191822241105L308.3820554011297,344.34213105746835L307.5570686275646,339.66339856712244L307.0604633604346,334.93851506576107L306.89465901068274,330.1904997108593L307.0604633604346,325.4424843559576L307.5570686275646,320.7176008545965L308.3820554011297,316.0388683642501L309.5314044284971,311.4290811993077L310.9995161967372,306.910697779462L312.77923821288914,302.5057312145492L314.8618998501872,298.2356420588867L317.23735459048316,294.1212337576138L319.89402945706206,290.182551294395L322.81898139702184,286.43878353427624L325.9979603385266,282.90816973746314L329.4154786157226,279.6079106994765L333.0548864230914,276.5540849506101L336.8984529316274,273.76157042294153L340.9274526716547,271.24397196654775L345.1222567614341,269.0135550680401L349.4624285371003,267.08118609434723L353.926823118034,265.45627935286745L358.4936904225974,264.1467512259113L363.140781132342,263.1589816028795L367.84545508845395,262.4977827980849L372.5847915923307,262.166376105641L377.3357010729228,262.166376105641L382.0750375767998,262.4977827980849L386.7797115329115,263.1589816028795L391.4268022426561,264.1467512259113L395.99366954721927,265.45627935286745L400.4580641281534,267.08118609434723L404.79823590381943,269.0135550680401L408.9930399935988,271.24397196654775L413.02203973362634,273.76157042294153L416.86560624216213,276.5540849506101L420.50501404953116,279.6079106994765L423.9225323267269,282.90816973746314L427.10151126823143,286.43878353427624L430.02646320819144,290.182551294395L432.68313807477057,294.1212337576138L435.0585928150665,298.2356420588867L437.14125445236436,302.5057312145492L438.9209764685163,306.910697779462L440.3890882367564,311.4290811993077L441.53843726412356,316.0388683642501L442.3634240376889,320.7176008545965L442.8600293048189,325.4424843559576Z" stroke-width="0.5" stroke="#000000" fill="transparent"></path></g><g><path d="M600,345.6379939937835L599.9365288372892,347.45557028532545L599.746424574282,349.26429152787705L599.4306133798384,351.05534581335684L598.9906338543524,352.82000730532195L598.4286295338457,354.5496787503665L597.7473384468753,356.23593336307675L596.9500797751339,357.87055588048094L596.0407376827297,359.44558258598585L595.0237423929307,360.9533401078033L593.9040486045603,362.3864828028466L592.6871113532045,363.73802854396405L591.3788594348252,365.0013927361626L589.9856665212649,366.1704203960905L588.5143201083538,367.23941613849814L586.9719884479175,368.203171923584L585.3661856247707,369.0569924300402L583.7047349488525,369.7967179301839L581.9957308408486,370.41874455573617L580.2474993969834,370.92004185550275L578.4685578251208,371.2981675594299L576.6675729497802,371.5512794770968L574.8533189882396,371.67814447268313L573.0346348034313,371.67814447268313L571.2203808418903,371.5512794770968L569.4193959665497,371.2981675594299L567.6404543946874,370.92004185550275L565.8922229508225,370.41874455573617L564.183218842818,369.7967179301839L562.5217681669001,369.0569924300402L560.915965343753,368.203171923584L559.3736336833167,367.23941613849814L557.9022872704061,366.1704203960905L556.5090943568455,365.0013927361626L555.2008424384667,363.73802854396405L553.9839051871106,362.3864828028466L552.86421139874,360.9533401078033L551.847216108941,359.44558258598545L550.9378740165369,357.87055588048094L550.1406153447954,356.23593336307675L549.4593242578248,354.5496787503665L548.8973199373183,352.82000730532195L548.4573404118323,351.05534581335684L548.1415292173888,349.26429152787705L547.9514249543818,347.45557028532545L547.887953791671,345.6379939937835L547.9514249543818,343.82041770224185L548.1415292173888,342.01169645969L548.4573404118323,340.2206421742099L548.8973199373183,338.45598068224496L549.4593242578248,336.7263092372001L550.1406153447954,335.04005462449015L550.9378740165369,333.4054321070863L551.847216108941,331.8304054015814L552.86421139874,330.32264787976385L553.9839051871106,328.88950518472063L555.2008424384667,327.5379594436025L556.5090943568455,326.27459525140443L557.9022872704061,325.10556759147687L559.3736336833167,324.036571849069L560.915965343753,323.07281606398305L562.5217681669001,322.218995557527L564.183218842818,321.47927005738336L565.8922229508225,320.8572434318311L567.6404543946874,320.3559461320642L569.4193959665497,319.9778204281372L571.2203808418908,319.7247085104707L573.0346348034313,319.59784351488383L574.8533189882396,319.59784351488383L576.6675729497802,319.7247085104707L578.4685578251208,319.9778204281372L580.2474993969834,320.3559461320642L581.9957308408486,320.8572434318311L583.7047349488525,321.47927005738336L585.3661856247707,322.218995557527L586.9719884479175,323.07281606398305L588.5143201083538,324.036571849069L589.9856665212649,325.10556759147687L591.3788594348252,326.27459525140443L592.6871113532045,327.5379594436025L593.9040486045603,328.88950518472063L595.0237423929307,330.32264787976385L596.0407376827297,331.8304054015814L596.9500797751339,333.4054321070863L597.7473384468753,335.04005462449015L598.4286295338457,336.7263092372001L598.9906338543524,338.45598068224496L599.4306133798384,340.2206421742099L599.746424574282,342.01169645969L599.9365288372892,343.82041770224185Z" stroke-width="0.5" stroke="#000000" fill="transparent"></path></g><g><path d="M528.8666008259879,439.97072353293385L528.735844721386,443.7150884625905L528.3442134381794,447.4412112226921L527.6936149646131,451.1309385177003L526.7872189510522,454.76629436712284L525.6294412677644,458.3295676826878L524.2259224912425,461.80339855497914L522.5835004238854,465.17086282917563L520.7101767809093,468.4155545578307L518.6150782067971,471.5216659289964L516.3084118112026,474.4740642802985L513.8014154409404,477.2583658237429L511.1063029303241,479.86100572208676L508.23620459659355,482.2693041753629L505.2051032703298,484.4715281955871L502.0277661725081,486.4569487687005L498.71967297008496,488.21589312524395L495.29694036061437,489.73979186512116L491.7762435533173,491.02122070685334L488.17473502914004,492.05393665793224L484.50996097559005,492.83290843005227L480.79977580347395,493.354340951042L477.0622551620045,493.6156938540731L473.3156078760526,493.6156938540731L469.5780872345829,493.354340951042L465.8679020624668,492.83290843005227L462.2031280089168,492.05393665793224L458.60161948473956,491.02122070685334L455.0809226774427,489.73979186512116L451.65819006797165,488.21589312524395L448.35009686554895,486.4569487687005L445.17275976772726,484.4715281955871L442.1416584414633,482.2693041753629L439.2715601077325,479.86100572208676L436.5764475971164,477.2583658237429L434.0694512268544,474.4740642802985L431.76278483126,471.5216659289964L429.6676862571478,468.4155545578307L427.7943626141712,465.17086282917563L426.15194054681433,461.80339855497914L424.7484217702929,458.3295676826878L423.5906440870044,454.76629436712284L422.684248073444,451.1309385177003L422.03364959987744,447.4412112226921L421.64201831667106,443.7150884625905L421.51126221206914,439.97072353293385L421.64201831667106,436.2263586032771L422.03364959987744,432.5002358431753L422.684248073444,428.8105085481673L423.5906440870044,425.1751526987441L424.7484217702929,421.6118793831794L426.15194054681433,418.1380485108881L427.7943626141712,414.77058423669143L429.6676862571478,411.52589250803635L431.76278483126,408.41978113687094L434.0694512268544,405.4673827855688L436.5764475971164,402.68308124212456L439.2715601077325,400.0804413437799L442.1416584414633,397.6721428905042L445.17275976772726,395.46991887028014L448.35009686554895,393.48449829716714L451.65819006797165,391.7255539406231L455.0809226774427,390.2016552007462L458.60161948473956,388.92022635901367L462.2031280089168,387.8875104079351L465.8679020624668,387.10853863581457L469.5780872345829,386.587106114825L473.3156078760526,386.3257532117942L477.0622551620047,386.3257532117942L480.79977580347395,386.587106114825L484.50996097559005,387.10853863581457L488.17473502914004,387.8875104079351L491.7762435533173,388.92022635901367L495.29694036061437,390.2016552007462L498.71967297008496,391.7255539406231L502.0277661725081,393.48449829716714L505.2051032703298,395.46991887028014L508.23620459659355,397.6721428905042L511.1063029303241,400.0804413437799L513.8014154409404,402.68308124212456L516.3084118112026,405.4673827855688L518.6150782067971,408.41978113687094L520.7101767809093,411.52589250803635L522.5835004238854,414.77058423669143L524.2259224912425,418.1380485108881L525.6294412677644,421.6118793831794L526.7872189510522,425.1751526987441L527.6936149646131,428.8105085481673L528.3442134381794,432.5002358431753L528.735844721386,436.2263586032771Z" stroke-width="0.5" stroke="#000000" fill="transparent"></path></g></svg>